<svg xmlns="http://www.w3.org/2000/svg" version="1.1" xmlns:xlink="http://www.w3.org/1999/xlink" xmlns:svgjs="http://svgjs.dev/svgjs" width="1000" height="1000" viewBox="0 0 1000 1000"><rect width="1000" height="1000" fill="#4d7e3e"></rect><g transform="matrix(0.7,0,0,0.7,149.57575757575756,433.47689738181737)"><svg viewBox="0 0 396 76" data-background-color="#4d7e3e" preserveAspectRatio="xMidYMid meet" height="191" width="1000" xmlns="http://www.w3.org/2000/svg" xmlns:xlink="http://www.w3.org/1999/xlink"><g id="tight-bounds" transform="matrix(1,0,0,1,0.2400000000000091,-0.18582050125746719)"><svg viewBox="0 0 395.52 76.37139453774557" height="76.37139453774557" width="395.52"><g><svg viewBox="0 0 515.3923477787234 99.51767883784352" height="76.37139453774557" width="395.52"><g transform="matrix(1,0,0,1,119.8723477787234,28.20363162473696)"><svg viewBox="0 0 395.52 43.1104155883696" height="43.1104155883696" width="395.52"><g id="textblocktransform"><svg viewBox="0 0 395.52 43.1104155883696" height="43.1104155883696" width="395.52" id="textblock"><g><svg viewBox="0 0 395.52 43.1104155883696" height="43.1104155883696" width="395.52"><g transform="matrix(1,0,0,1,0,0)"><svg width="395.52" viewBox="3.049999952316284 -35.150001525878906 328.4300231933594 35.80000305175781" height="43.1104155883696" data-palette-color="#c9efc7"><path d="M16.7-35.15L16.7-35.15Q20.45-35.15 23.08-34.25 25.7-33.35 27.28-31.28 28.85-29.2 29.58-25.75 30.3-22.3 30.3-17.25L30.3-17.25Q30.3-12.2 29.58-8.75 28.85-5.3 27.28-3.23 25.7-1.15 23.08-0.25 20.45 0.65 16.7 0.65L16.7 0.65Q12.95 0.65 10.33-0.25 7.7-1.15 6.1-3.23 4.5-5.3 3.78-8.75 3.05-12.2 3.05-17.25L3.05-17.25Q3.05-22.3 3.78-25.75 4.5-29.2 6.1-31.28 7.7-33.35 10.33-34.25 12.95-35.15 16.7-35.15ZM16.7-31.2L16.7-31.2Q13.3-31.2 11.33-29.9 9.35-28.6 8.53-25.58 7.7-22.55 7.7-17.25L7.7-17.25Q7.7-12 8.53-8.95 9.35-5.9 11.33-4.6 13.3-3.3 16.7-3.3L16.7-3.3Q20.1-3.3 22.08-4.6 24.05-5.9 24.88-8.95 25.7-12 25.7-17.25L25.7-17.25Q25.7-22.55 24.88-25.58 24.05-28.6 22.08-29.9 20.1-31.2 16.7-31.2ZM49.6-34.95L49.6-34.95Q53.75-34.95 56.17-34 58.6-33.05 59.65-30.73 60.7-28.4 60.7-24.15L60.7-24.15Q60.7-19.9 59.67-17.55 58.65-15.2 56.32-14.28 54-13.35 50.1-13.35L50.1-13.35Q48-13.35 46.07-13.45 44.15-13.55 42.55-13.73 40.95-13.9 39.82-14.1 38.7-14.3 38.25-14.45L38.25-14.45 38.4-17.15Q41.05-17.15 43.9-17.15 46.75-17.15 49.55-17.15L49.55-17.15Q52.05-17.2 53.52-17.78 55-18.35 55.62-19.88 56.25-21.4 56.25-24.15L56.25-24.15Q56.25-26.95 55.62-28.45 55-29.95 53.52-30.55 52.05-31.15 49.55-31.15L49.55-31.15Q45.45-31.15 42.47-31.1 39.5-31.05 38.45-30.95L38.45-30.95 37.75-34.5Q39.65-34.7 41.3-34.8 42.95-34.9 44.9-34.93 46.85-34.95 49.6-34.95ZM37.75-34.5L42.15-34.5 42.15 0 37.75 0 37.75-34.5ZM73.59-34.55L73.59-34.55Q76.09-34.55 78.62-34.55 81.15-34.55 83.62-34.48 86.09-34.4 88.4-34.25L88.4-34.25 88.2-30.8 74.34-30.8Q72.8-30.8 72.07-30.03 71.34-29.25 71.34-27.5L71.34-27.5 71.34-7Q71.34-5.25 72.07-4.45 72.8-3.65 74.34-3.65L74.34-3.65 88.2-3.65 88.4-0.25Q86.09-0.1 83.62-0.05 81.15 0 78.62 0.03 76.09 0.05 73.59 0.05L73.59 0.05Q70.55 0.05 68.77-1.58 67-3.2 66.95-5.95L66.95-5.95 66.95-28.55Q67-31.35 68.77-32.95 70.55-34.55 73.59-34.55ZM67.84-16.45L67.84-20 86.25-20 86.25-16.45 67.84-16.45ZM117.44-34.5L121.79-34.5 121.79-1.75Q121.79 0 120.09 0L120.09 0 115.79 0Q115.04 0 114.59-0.35 114.14-0.7 113.84-1.4L113.84-1.4 102.19-25.85Q101.74-26.85 101.14-28.1 100.54-29.35 100.24-30.4L100.24-30.4 99.44-30.4Q99.54-29.3 99.59-28.15 99.64-27 99.64-25.85L99.64-25.85 99.64 0 95.24 0 95.24-32.75Q95.24-34.5 96.99-34.5L96.99-34.5 101.14-34.5Q101.89-34.5 102.34-34.15 102.79-33.8 103.09-33.1L103.09-33.1 114.39-9.25Q114.94-8.2 115.57-6.88 116.19-5.55 116.74-4.25L116.74-4.25 117.59-4.25Q117.54-5.6 117.49-6.9 117.44-8.2 117.44-9.5L117.44-9.5 117.44-34.5ZM130.39-34.5L134.74-34.5 134.74-7Q134.74-5.3 135.57-4.5 136.39-3.7 138.09-3.7L138.09-3.7 150.54-3.7 150.74-0.3Q147.49-0.05 144.12 0 140.74 0.05 137.39 0.05L137.39 0.05Q133.59 0.05 131.99-1.8 130.39-3.65 130.39-6.45L130.39-6.45 130.39-34.5ZM167.74-35.15L167.74-35.15Q171.49-35.15 174.11-34.25 176.74-33.35 178.31-31.28 179.89-29.2 180.61-25.75 181.34-22.3 181.34-17.25L181.34-17.25Q181.34-12.2 180.61-8.75 179.89-5.3 178.31-3.23 176.74-1.15 174.11-0.25 171.49 0.65 167.74 0.65L167.74 0.65Q163.99 0.65 161.36-0.25 158.74-1.15 157.14-3.23 155.54-5.3 154.81-8.75 154.09-12.2 154.09-17.25L154.09-17.25Q154.09-22.3 154.81-25.75 155.54-29.2 157.14-31.28 158.74-33.35 161.36-34.25 163.99-35.15 167.74-35.15ZM167.74-31.2L167.74-31.2Q164.34-31.2 162.36-29.9 160.39-28.6 159.56-25.58 158.74-22.55 158.74-17.25L158.74-17.25Q158.74-12 159.56-8.95 160.39-5.9 162.36-4.6 164.34-3.3 167.74-3.3L167.74-3.3Q171.14-3.3 173.11-4.6 175.09-5.9 175.91-8.95 176.74-12 176.74-17.25L176.74-17.25Q176.74-22.55 175.91-25.58 175.09-28.6 173.11-29.9 171.14-31.2 167.74-31.2ZM201.04-35.1L201.04-35.1Q203.24-35.1 204.81-35 206.39-34.9 207.71-34.68 209.04-34.45 210.44-34.1L210.44-34.1 209.99-30.75Q208.49-30.9 207.21-31 205.94-31.1 204.49-31.15 203.04-31.2 201.04-31.2L201.04-31.2Q197.69-31.2 195.74-29.9 193.79-28.6 192.96-25.55 192.14-22.5 192.14-17.25L192.14-17.25Q192.14-12 192.96-8.95 193.79-5.9 195.74-4.6 197.69-3.3 201.04-3.3L201.04-3.3Q204.24-3.3 206.41-3.43 208.59-3.55 210.69-3.85L210.69-3.85 211.14-0.55Q208.99 0.05 206.71 0.33 204.44 0.6 201.04 0.6L201.04 0.6Q196.09 0.6 193.11-1.13 190.14-2.85 188.81-6.75 187.49-10.65 187.49-17.25L187.49-17.25Q187.49-23.85 188.81-27.75 190.14-31.65 193.11-33.38 196.09-35.1 201.04-35.1ZM226.18-34.5L230.78-34.5Q231.38-34.5 231.83-34.18 232.28-33.85 232.43-33.3L232.43-33.3 243.53 0 238.98 0 230.03-28.3Q229.83-29 229.61-29.73 229.38-30.45 229.18-31.1L229.18-31.1 227.78-31.1Q227.58-30.45 227.38-29.73 227.18-29 226.93-28.3L226.93-28.3 217.98 0 213.43 0 224.53-33.3Q224.68-33.85 225.13-34.18 225.58-34.5 226.18-34.5L226.18-34.5ZM219.68-14.6L237.18-14.6 237.18-10.8 219.68-10.8 219.68-14.6ZM253.38-34.5L257.78-34.5 257.78 0 253.38 0 253.38-34.5ZM242.28-34.5L268.93-34.5 268.93-30.6 242.28-30.6 242.28-34.5ZM286.13-35.15L286.13-35.15Q289.88-35.15 292.5-34.25 295.13-33.35 296.7-31.28 298.28-29.2 299-25.75 299.73-22.3 299.73-17.25L299.73-17.25Q299.73-12.2 299-8.75 298.28-5.3 296.7-3.23 295.13-1.15 292.5-0.25 289.88 0.65 286.13 0.65L286.13 0.65Q282.38 0.65 279.75-0.25 277.13-1.15 275.53-3.23 273.93-5.3 273.2-8.75 272.48-12.2 272.48-17.25L272.48-17.25Q272.48-22.3 273.2-25.75 273.93-29.2 275.53-31.28 277.13-33.35 279.75-34.25 282.38-35.15 286.13-35.15ZM286.13-31.2L286.13-31.2Q282.73-31.2 280.75-29.9 278.78-28.6 277.95-25.58 277.13-22.55 277.13-17.25L277.13-17.25Q277.13-12 277.95-8.95 278.78-5.9 280.75-4.6 282.73-3.3 286.13-3.3L286.13-3.3Q289.53-3.3 291.5-4.6 293.48-5.9 294.3-8.95 295.13-12 295.13-17.25L295.13-17.25Q295.13-22.55 294.3-25.58 293.48-28.6 291.5-29.9 289.53-31.2 286.13-31.2ZM319.08-34.95L319.08-34.95Q323.08-34.95 325.53-34.08 327.98-33.2 329.1-31.05 330.23-28.9 330.23-25L330.23-25Q330.23-22.2 329.58-20.33 328.93-18.45 327.55-17.43 326.18-16.4 323.88-16.1L323.88-16.1 323.88-15.85Q324.73-15.65 325.55-15.03 326.38-14.4 327.08-13.38 327.78-12.35 328.13-10.9L328.13-10.9 331.48 0 326.78 0 323.73-10.8Q323.08-12.75 321.98-13.58 320.88-14.4 319.13-14.4L319.13-14.4Q316.08-14.4 313.83-14.43 311.58-14.45 310.08-14.5 308.58-14.55 307.68-14.55L307.68-14.55 307.83-18.2 318.98-18.2Q321.53-18.25 323-18.8 324.48-19.35 325.13-20.78 325.78-22.2 325.78-24.75L325.78-24.75Q325.78-27.3 325.13-28.68 324.48-30.05 323-30.6 321.53-31.15 318.98-31.15L318.98-31.15Q314.88-31.15 311.9-31.1 308.93-31.05 307.88-31.05L307.88-31.05 307.18-34.5Q309.08-34.7 310.73-34.8 312.38-34.9 314.35-34.93 316.33-34.95 319.08-34.95ZM307.18-34.5L311.53-34.5 311.53 0 307.18 0 307.18-34.5Z" opacity="1" transform="matrix(1,0,0,1,0,0)" fill="#c9efc7" class="wordmark-text-0" data-fill-palette-color="primary" id="text-0"></path></svg></g></svg></g></svg></g></svg></g><g><svg viewBox="0 0 99.51767883784352 99.51767883784352" height="99.51767883784352" width="99.51767883784352"><g><svg></svg></g><g id="icon-0"><svg viewBox="0 0 99.51767883784352 99.51767883784352" height="99.51767883784352" width="99.51767883784352"><g><path d="M0 49.759c0-27.481 22.278-49.759 49.759-49.759 27.481 0 49.759 22.278 49.759 49.759 0 27.481-22.278 49.759-49.759 49.759-27.481 0-49.759-22.278-49.759-49.759zM49.759 95.63c25.334 0 45.871-20.537 45.871-45.871 0-25.334-20.537-45.871-45.871-45.871-25.334 0-45.871 20.537-45.871 45.871 0 25.334 20.537 45.871 45.871 45.871z" data-fill-palette-color="accent" fill="#31c48d" stroke="transparent"></path></g><g transform="matrix(1,0,0,1,25.96502881881075,25.96502881881075)"><svg viewBox="0 0 47.58762120022202 47.58762120022202" height="47.58762120022202" width="47.58762120022202"><g><svg xmlns="http://www.w3.org/2000/svg" xmlns:xlink="http://www.w3.org/1999/xlink" version="1.1" x="0" y="0" viewBox="25.600000381469727 25.600000381469727 48.80000305175781 48.80000305175781" style="enable-background:new 0 0 100 100;" xml:space="preserve" height="47.58762120022202" width="47.58762120022202" class="icon-s-0" data-fill-palette-color="accent" id="s-0"><g fill="#31c48d" data-fill-palette-color="accent"><path d="M48.6 69.7c0.1 0.2 0.3 0.3 0.5 0.3 0 0 0 0 0 0 0.2 0 0.4-0.1 0.5-0.3l15-33.3c0.1-0.2 0-0.4-0.1-0.6-0.1-0.1-0.4-0.2-0.6-0.1l-33.3 15c-0.2 0.1-0.3 0.3-0.3 0.5 0 0.2 0.1 0.4 0.3 0.5l13 4.9L48.6 69.7zM63.1 37.2l-14 31-4.6-12.1c-0.1-0.1-0.2-0.2-0.3-0.3l-12.1-4.6L63.1 37.2z" fill="#31c48d" data-fill-palette-color="accent"></path><path d="M50 74.4c13.4 0 24.4-10.9 24.4-24.4S63.4 25.6 50 25.6 25.6 36.6 25.6 50 36.6 74.4 50 74.4zM50 26.6c12.9 0 23.4 10.5 23.4 23.4S62.9 73.4 50 73.4 26.6 62.9 26.6 50 37.1 26.6 50 26.6z" fill="#31c48d" data-fill-palette-color="accent"></path></g></svg></g></svg></g></svg></g></svg></g></svg></g><defs></defs></svg><rect width="395.52" height="76.37139453774557" fill="none" stroke="none" visibility="hidden"></rect></g></svg></g></svg>